<mxfile host="app.diagrams.net" modified="2023-08-31T13:43:26.827Z" agent="Mozilla/5.0 (X11; Linux x86_64; rv:103.0) Gecko/20100101 Firefox/103.0" etag="FYEZc0G9ycSnUyoqHmdf" version="21.6.9" type="github">
  <diagram id="R2lEEEUBdFMjLlhIrx00" name="Page-1">
    <mxGraphModel dx="1434" dy="718" grid="1" gridSize="10" guides="1" tooltips="1" connect="1" arrows="1" fold="1" page="1" pageScale="1" pageWidth="850" pageHeight="1100" math="0" shadow="0" extFonts="Permanent Marker^https://fonts.googleapis.com/css?family=Permanent+Marker">
      <root>
        <mxCell id="0" />
        <mxCell id="1" parent="0" />
        <mxCell id="bcnfrQNddlGjlIOqEpyJ-2" style="edgeStyle=orthogonalEdgeStyle;rounded=0;orthogonalLoop=1;jettySize=auto;html=1;exitX=1;exitY=0.5;exitDx=0;exitDy=0;" edge="1" parent="1" source="bcnfrQNddlGjlIOqEpyJ-1">
          <mxGeometry relative="1" as="geometry">
            <mxPoint x="260" y="70" as="targetPoint" />
          </mxGeometry>
        </mxCell>
        <mxCell id="bcnfrQNddlGjlIOqEpyJ-1" value="DEPARTAMENTO" style="rounded=0;whiteSpace=wrap;html=1;" vertex="1" parent="1">
          <mxGeometry x="40" y="40" width="145" height="60" as="geometry" />
        </mxCell>
        <mxCell id="bcnfrQNddlGjlIOqEpyJ-3" value="1" style="text;html=1;align=center;verticalAlign=middle;resizable=0;points=[];autosize=1;strokeColor=none;fillColor=none;" vertex="1" parent="1">
          <mxGeometry x="185" y="38" width="30" height="30" as="geometry" />
        </mxCell>
        <mxCell id="bcnfrQNddlGjlIOqEpyJ-5" style="edgeStyle=orthogonalEdgeStyle;rounded=0;orthogonalLoop=1;jettySize=auto;html=1;exitX=1;exitY=0.5;exitDx=0;exitDy=0;" edge="1" parent="1" source="bcnfrQNddlGjlIOqEpyJ-4">
          <mxGeometry relative="1" as="geometry">
            <mxPoint x="420" y="70" as="targetPoint" />
          </mxGeometry>
        </mxCell>
        <mxCell id="bcnfrQNddlGjlIOqEpyJ-4" value="E" style="rhombus;whiteSpace=wrap;html=1;" vertex="1" parent="1">
          <mxGeometry x="260" y="45" width="80" height="50" as="geometry" />
        </mxCell>
        <mxCell id="bcnfrQNddlGjlIOqEpyJ-7" style="edgeStyle=orthogonalEdgeStyle;rounded=0;orthogonalLoop=1;jettySize=auto;html=1;exitX=0.5;exitY=1;exitDx=0;exitDy=0;" edge="1" parent="1" source="bcnfrQNddlGjlIOqEpyJ-6">
          <mxGeometry relative="1" as="geometry">
            <mxPoint x="485" y="170" as="targetPoint" />
          </mxGeometry>
        </mxCell>
        <mxCell id="bcnfrQNddlGjlIOqEpyJ-6" value="FUNCIONÁRIO" style="rounded=0;whiteSpace=wrap;html=1;" vertex="1" parent="1">
          <mxGeometry x="420" y="40" width="130" height="60" as="geometry" />
        </mxCell>
        <mxCell id="bcnfrQNddlGjlIOqEpyJ-9" style="edgeStyle=orthogonalEdgeStyle;rounded=0;orthogonalLoop=1;jettySize=auto;html=1;exitX=0.5;exitY=1;exitDx=0;exitDy=0;" edge="1" parent="1" source="bcnfrQNddlGjlIOqEpyJ-8">
          <mxGeometry relative="1" as="geometry">
            <mxPoint x="485" y="260" as="targetPoint" />
          </mxGeometry>
        </mxCell>
        <mxCell id="bcnfrQNddlGjlIOqEpyJ-8" value="P" style="rhombus;whiteSpace=wrap;html=1;" vertex="1" parent="1">
          <mxGeometry x="445" y="170" width="80" height="60" as="geometry" />
        </mxCell>
        <mxCell id="bcnfrQNddlGjlIOqEpyJ-13" style="edgeStyle=orthogonalEdgeStyle;rounded=0;orthogonalLoop=1;jettySize=auto;html=1;exitX=0.5;exitY=1;exitDx=0;exitDy=0;" edge="1" parent="1" source="bcnfrQNddlGjlIOqEpyJ-10">
          <mxGeometry relative="1" as="geometry">
            <mxPoint x="488" y="290" as="targetPoint" />
          </mxGeometry>
        </mxCell>
        <mxCell id="bcnfrQNddlGjlIOqEpyJ-14" style="edgeStyle=orthogonalEdgeStyle;rounded=0;orthogonalLoop=1;jettySize=auto;html=1;exitX=0.5;exitY=1;exitDx=0;exitDy=0;" edge="1" parent="1" source="bcnfrQNddlGjlIOqEpyJ-10">
          <mxGeometry relative="1" as="geometry">
            <mxPoint x="488" y="320" as="targetPoint" />
          </mxGeometry>
        </mxCell>
        <mxCell id="bcnfrQNddlGjlIOqEpyJ-10" value="PROJETO" style="rounded=0;whiteSpace=wrap;html=1;" vertex="1" parent="1">
          <mxGeometry x="430" y="260" width="115" height="30" as="geometry" />
        </mxCell>
        <mxCell id="bcnfrQNddlGjlIOqEpyJ-11" style="edgeStyle=orthogonalEdgeStyle;rounded=0;orthogonalLoop=1;jettySize=auto;html=1;exitX=0.5;exitY=1;exitDx=0;exitDy=0;" edge="1" parent="1" source="bcnfrQNddlGjlIOqEpyJ-10" target="bcnfrQNddlGjlIOqEpyJ-10">
          <mxGeometry relative="1" as="geometry" />
        </mxCell>
        <mxCell id="bcnfrQNddlGjlIOqEpyJ-16" style="edgeStyle=orthogonalEdgeStyle;rounded=0;orthogonalLoop=1;jettySize=auto;html=1;exitX=0.5;exitY=1;exitDx=0;exitDy=0;" edge="1" parent="1" source="bcnfrQNddlGjlIOqEpyJ-15">
          <mxGeometry relative="1" as="geometry">
            <mxPoint x="488" y="400" as="targetPoint" />
          </mxGeometry>
        </mxCell>
        <mxCell id="bcnfrQNddlGjlIOqEpyJ-15" value="U" style="rhombus;whiteSpace=wrap;html=1;" vertex="1" parent="1">
          <mxGeometry x="447.5" y="320" width="80" height="50" as="geometry" />
        </mxCell>
        <mxCell id="bcnfrQNddlGjlIOqEpyJ-19" style="edgeStyle=orthogonalEdgeStyle;rounded=0;orthogonalLoop=1;jettySize=auto;html=1;exitX=0.5;exitY=1;exitDx=0;exitDy=0;" edge="1" parent="1" source="bcnfrQNddlGjlIOqEpyJ-17" target="bcnfrQNddlGjlIOqEpyJ-20">
          <mxGeometry relative="1" as="geometry">
            <mxPoint x="80" y="310" as="targetPoint" />
          </mxGeometry>
        </mxCell>
        <mxCell id="bcnfrQNddlGjlIOqEpyJ-23" style="edgeStyle=orthogonalEdgeStyle;rounded=0;orthogonalLoop=1;jettySize=auto;html=1;exitX=0;exitY=0.5;exitDx=0;exitDy=0;" edge="1" parent="1" source="bcnfrQNddlGjlIOqEpyJ-17">
          <mxGeometry relative="1" as="geometry">
            <mxPoint x="350" y="415" as="targetPoint" />
          </mxGeometry>
        </mxCell>
        <mxCell id="bcnfrQNddlGjlIOqEpyJ-17" value="PEÇAS" style="rounded=0;whiteSpace=wrap;html=1;" vertex="1" parent="1">
          <mxGeometry x="420" y="400" width="127.5" height="30" as="geometry" />
        </mxCell>
        <mxCell id="bcnfrQNddlGjlIOqEpyJ-25" style="edgeStyle=orthogonalEdgeStyle;rounded=0;orthogonalLoop=1;jettySize=auto;html=1;exitX=1;exitY=0.5;exitDx=0;exitDy=0;entryX=0;entryY=0.5;entryDx=0;entryDy=0;" edge="1" parent="1" source="bcnfrQNddlGjlIOqEpyJ-20" target="bcnfrQNddlGjlIOqEpyJ-24">
          <mxGeometry relative="1" as="geometry" />
        </mxCell>
        <mxCell id="bcnfrQNddlGjlIOqEpyJ-20" value="FORNECEDORES" style="rounded=0;whiteSpace=wrap;html=1;" vertex="1" parent="1">
          <mxGeometry x="20" y="300" width="140" height="40" as="geometry" />
        </mxCell>
        <mxCell id="bcnfrQNddlGjlIOqEpyJ-24" value="E" style="rhombus;whiteSpace=wrap;html=1;" vertex="1" parent="1">
          <mxGeometry x="270" y="390" width="80" height="50" as="geometry" />
        </mxCell>
        <mxCell id="bcnfrQNddlGjlIOqEpyJ-26" value="1" style="text;html=1;align=center;verticalAlign=middle;resizable=0;points=[];autosize=1;strokeColor=none;fillColor=none;" vertex="1" parent="1">
          <mxGeometry x="165" y="298" width="30" height="30" as="geometry" />
        </mxCell>
        <mxCell id="bcnfrQNddlGjlIOqEpyJ-27" value="N" style="text;html=1;align=center;verticalAlign=middle;resizable=0;points=[];autosize=1;strokeColor=none;fillColor=none;" vertex="1" parent="1">
          <mxGeometry x="345" y="378" width="30" height="30" as="geometry" />
        </mxCell>
        <mxCell id="bcnfrQNddlGjlIOqEpyJ-28" value="N" style="text;html=1;align=center;verticalAlign=middle;resizable=0;points=[];autosize=1;strokeColor=none;fillColor=none;" vertex="1" parent="1">
          <mxGeometry x="425" y="378" width="30" height="30" as="geometry" />
        </mxCell>
        <mxCell id="bcnfrQNddlGjlIOqEpyJ-29" value="N" style="text;html=1;align=center;verticalAlign=middle;resizable=0;points=[];autosize=1;strokeColor=none;fillColor=none;" vertex="1" parent="1">
          <mxGeometry x="435" y="228" width="30" height="30" as="geometry" />
        </mxCell>
        <mxCell id="bcnfrQNddlGjlIOqEpyJ-30" value="1" style="text;html=1;align=center;verticalAlign=middle;resizable=0;points=[];autosize=1;strokeColor=none;fillColor=none;" vertex="1" parent="1">
          <mxGeometry x="435" y="98" width="30" height="30" as="geometry" />
        </mxCell>
        <mxCell id="bcnfrQNddlGjlIOqEpyJ-31" value="N" style="text;html=1;align=center;verticalAlign=middle;resizable=0;points=[];autosize=1;strokeColor=none;fillColor=none;" vertex="1" parent="1">
          <mxGeometry x="365" y="38" width="30" height="30" as="geometry" />
        </mxCell>
        <mxCell id="bcnfrQNddlGjlIOqEpyJ-32" value="1" style="text;html=1;align=center;verticalAlign=middle;resizable=0;points=[];autosize=1;strokeColor=none;fillColor=none;" vertex="1" parent="1">
          <mxGeometry x="485" y="428" width="30" height="30" as="geometry" />
        </mxCell>
      </root>
    </mxGraphModel>
  </diagram>
</mxfile>
